<mxfile host="app.diagrams.net" modified="2023-05-07T02:58:01.965Z" agent="Mozilla/5.0 (Macintosh; Intel Mac OS X 10_15_7) AppleWebKit/537.36 (KHTML, like Gecko) Chrome/112.0.0.0 Safari/537.36" version="21.2.9" etag="-w6QiDgBy1WX7a-Wjezt" type="github">
  <diagram name="Page-1" id="ID2YJHyo39spovP2rTB-">
    <mxGraphModel>
      <root>
        <mxCell id="0" />
        <mxCell id="1" parent="0" />
      </root>
    </mxGraphModel>
  </diagram>
</mxfile>
